<svg width="24" height="24" viewBox="0 0 24 24" fill="none" xmlns="http://www.w3.org/2000/svg">
  <path d="M12 6C8.61995 6 5.49995 7.12 2.99995 9.09L1.99995 8L2.99995 6.91C5.88995 4.63 8.83995 3.35 12 3.35C15.16 3.35 18.11 4.63 21 6.91L22 8L21 9.09C18.5 7.12 15.38 6 12 6Z" fill="#5E76BF"/>
  <path d="M12 10C9.78995 10 7.71995 10.7 5.99995 11.9L4.99995 10.82L5.99995 9.73C8.08995 8.22 9.98995 7.53 12 7.53C14.01 7.53 15.91 8.22 18 9.73L19 10.82L18 11.9C16.28 10.7 14.21 10 12 10Z" fill="#5E76BF"/>
  <path d="M12 14C10.92 14 9.86995 14.27 8.99995 14.77L7.99995 13.7L8.99995 12.61C10.23 11.86 11.1 11.53 12 11.53C12.9 11.53 13.77 11.86 15 12.61L16 13.7L15 14.77C14.13 14.27 13.08 14 12 14Z" fill="#5E76BF"/>
  <path d="M12 18C10.9 18 10 17.1 10 16C10 14.9 10.9 14 12 14C13.1 14 14 14.9 14 16C14 17.1 13.1 18 12 18Z" fill="#5E76BF"/>
</svg> 